<?xml version="1.0" encoding="utf-8"?>
<!-- Generator: Adobe Illustrator 16.0.0, SVG Export Plug-In . SVG Version: 6.00 Build 0)  -->
<!DOCTYPE svg PUBLIC "-//W3C//DTD SVG 1.1//EN" "http://www.w3.org/Graphics/SVG/1.1/DTD/svg11.dtd">
<svg version="1.1" id="Layer_1" xmlns="http://www.w3.org/2000/svg" xmlns:xlink="http://www.w3.org/1999/xlink" x="0px" y="0px"
	 width="151.074px" height="151.074px" viewBox="0 0 151.074 151.074" enable-background="new 0 0 151.074 151.074"
	 xml:space="preserve">
<g>
	<defs>
		<rect id="SVGID_1_" width="151.074" height="151.074"/>
	</defs>
	<clipPath id="SVGID_2_">
		<use xlink:href="#SVGID_1_"  overflow="visible"/>
	</clipPath>
	<path clip-path="url(#SVGID_2_)" fill="#5D5E5E" d="M150.634,75.537c0,41.475-33.622,75.096-75.097,75.096
		S0.44,117.012,0.44,75.537c0-41.475,33.622-75.096,75.097-75.096S150.634,34.062,150.634,75.537"/>
	
		<circle clip-path="url(#SVGID_2_)" fill="none" stroke="#FFFFFF" stroke-width="0.882" stroke-miterlimit="10" cx="75.537" cy="75.537" r="75.097"/>
	<path clip-path="url(#SVGID_2_)" fill="#B44F9D" d="M102.66,54.703c0,0,6.627,8.023,5.127,16.137c-1.5,8.112-5.5,22.862-5,24.362
		s-8.479-4-8.479-4v-34.75L102.66,54.703z"/>
	<path clip-path="url(#SVGID_2_)" fill="#FFF3E0" d="M102.173,73.527c0,9.699-14.408,53.263-14.408,53.263H59.248
		c0,0-14.408-37.432-14.408-53.263c0-15.832,12.834-28.666,28.666-28.666S102.173,57.695,102.173,73.527"/>
	<path clip-path="url(#SVGID_2_)" fill="#BCC6CC" d="M75.786,45.018c-0.986-0.102-1.986-0.157-3-0.157
		c-15.832,0-28.666,12.834-28.666,28.666s15.833,56.249,15.833,56.249l5.28-0.74c0,0-15.113-39.677-15.113-55.509
		C50.12,58.708,61.364,46.518,75.786,45.018"/>
	<path clip-path="url(#SVGID_2_)" fill="#BCC6CC" d="M87.765,123.712c0-3.734-3.055-6.79-6.79-6.79H66.038
		c-3.734,0-6.79,3.056-6.79,6.79v3.077c0,3.734,3.056,6.79,6.79,6.79h14.937c3.735,0,6.79-3.056,6.79-6.79V123.712z"/>
	<path clip-path="url(#SVGID_2_)" fill="#FFF3E0" d="M84.097,125.51c0,2.753-1.475,4.985-3.296,4.985s-3.296-2.232-3.296-4.985
		c0-2.752,1.475-4.984,3.296-4.984S84.097,122.758,84.097,125.51"/>
	<path clip-path="url(#SVGID_2_)" fill="#FFF3E0" d="M70.511,125.51c0,2.753-1.475,4.985-3.296,4.985s-3.296-2.232-3.296-4.985
		c0-2.752,1.475-4.984,3.296-4.984S70.511,122.758,70.511,125.51"/>
	<path clip-path="url(#SVGID_2_)" fill="#B44F9D" d="M47.704,43.536c0,0,3.505-19.667,18.752-19.333
		c15.248,0.333,35.257,23.975,41.832,17.4c6.575-6.575,10.749-10.4,10.749-10.4c-4.166,14.333-2.666,13.658-2.666,13.658
		s7.333,0.001,8.666-4.162c-1.833,7.504-17.5,21.67-29.666,21.67c-12.167,0-31.909-13.496-39.931-5.474s-3.067,31.523-3.067,31.523
		s2.498,9.285-9.169,7.951c2.333-3.5,2.123-6.333,2.123-6.333s-3.623,1.5-5.956-0.667c5.831-6.432,4.749-7.833,4.749-7.833
		s-6.083,2.833-7.416,1.667c6.167-5-3.603-34.842,1.731-39.667C43.768,38.711,47.704,43.536,47.704,43.536"/>
	<path clip-path="url(#SVGID_2_)" fill="#E0E0C9" d="M83.552,62.971c-1.388,3.009-4.951,4.324-7.962,2.936
		c-3.01-1.387-4.324-4.951-2.936-7.96c1.387-3.009,26.194-42.48,26.194-42.48S84.938,59.963,83.552,62.971"/>
	<path clip-path="url(#SVGID_2_)" fill="#484342" d="M72.693,75.85c0,7.487-5.778,16.159-12.906,16.159
		c-7.127,0-12.905-8.672-12.905-16.159c0-7.487,5.778-10.953,12.905-10.953C66.915,64.897,72.693,68.363,72.693,75.85"/>
	<path clip-path="url(#SVGID_2_)" fill="#484342" d="M103.315,75.85c0,7.487-5.777,16.159-12.905,16.159S77.505,83.337,77.505,75.85
		c0-7.487,5.777-10.953,12.905-10.953S103.315,68.363,103.315,75.85"/>
	<rect x="98.848" y="67.078" clip-path="url(#SVGID_2_)" fill="#484342" width="5.689" height="3.761"/>
	<rect x="46.328" y="67.078" clip-path="url(#SVGID_2_)" fill="#484342" width="5.689" height="3.761"/>
	<path clip-path="url(#SVGID_2_)" fill="#FFFFFF" d="M99.515,70.356c0.946,1.91,0.417,4.102-0.41,4.512
		c-0.826,0.409-1.638-1.118-2.583-3.029c-0.947-1.91-1.672-3.48-0.846-3.89C96.503,67.541,98.567,68.447,99.515,70.356"/>
	<path clip-path="url(#SVGID_2_)" fill="#484342" d="M80.801,73.394c0,0-2.305-1-5.015-1c-2.71,0-5.274,1-5.274,1v-2.555
		c0,0,2.148-1,5.274-1c3.127,0,5.015,1,5.015,1V73.394z"/>
	<rect x="65.412" y="67.079" clip-path="url(#SVGID_2_)" fill="#484342" width="20.062" height="1.88"/>
	<path clip-path="url(#SVGID_2_)" fill="#FFFFFF" d="M68.999,70.356c0.947,1.91,0.417,4.102-0.41,4.512
		c-0.826,0.409-1.637-1.118-2.583-3.029c-0.947-1.91-1.672-3.48-0.845-3.89C65.988,67.541,68.052,68.447,68.999,70.356"/>
</g>
</svg>
